<?xml version="1.0" encoding="UTF-8" standalone="no"?>
<svg width="185px" height="45px" viewBox="0 0 185 45" version="1.1" xmlns="http://www.w3.org/2000/svg" xmlns:xlink="http://www.w3.org/1999/xlink">
    <!-- Generator: Sketch 3.8.3 (29802) - http://www.bohemiancoding.com/sketch -->
    <title>Group</title>
    <desc>Created with Sketch.</desc>
    <defs></defs>
    <g id="Page-1" stroke="none" stroke-width="1" fill="none" fill-rule="evenodd">
        <g id="logo-color" transform="translate(-4.000000, -1.000000)">
            <g id="Group" transform="translate(4.000000, 1.000000)">
                <polygon id="Fill-10" fill="#4D4021" points="176.258911 15.779678 176.258911 34.7061486 171.968458 34.7061486 171.968458 15.779678 163.451368 15.779678 163.451368 12.0612221 184.776002 12.0612221 184.776002 15.779678"></polygon>
                <path d="M160.695383,15.0494207 L158.793171,18.6355236 C156.705958,16.6886118 154.049564,15.636406 150.82399,15.4822148 C149.662422,15.4822148 148.630418,15.6258177 147.72669,15.9130236 C147.038902,16.1347148 146.485192,16.4669207 146.066202,16.9089795 C145.645923,17.3517001 145.435784,17.8387589 145.435784,18.370156 C145.435784,19.2119207 145.995296,19.7869942 147.113676,20.0960383 C147.63,20.251553 148.749024,20.417656 150.468815,20.5956707 L153.017561,20.8610383 C154.502718,21.0377295 155.701028,21.2700089 156.615714,21.5572148 C157.529111,21.8457442 158.330348,22.2441266 159.018136,22.7530236 C159.72784,23.3062589 160.281551,24.0262589 160.680557,24.9117001 C161.078275,25.7964795 161.276812,26.7368471 161.276812,27.732803 C161.276812,29.3269942 160.804321,30.7438324 159.85676,31.9833177 C158.975592,33.1122883 157.609686,33.954053 155.759686,34.5066266 C154.36284,34.9050089 152.868014,35.1042001 151.275854,35.1042001 C148.394495,35.1042001 145.006481,34.041406 141.113101,31.9164795 L142.564739,28.0650089 C143.404652,28.7955971 144.749286,29.510303 146.597352,30.2071413 C148.446707,30.9046413 150.039512,31.2527295 151.372544,31.2527295 C152.856411,31.2527295 154.114669,31.0092001 155.147317,30.5221413 C155.749373,30.2349354 156.233467,29.8650089 156.598955,29.4103766 C156.963798,28.9577295 157.147509,28.475303 157.147509,27.9670677 C157.147509,27.2139795 156.695645,26.6825824 155.791916,26.3728766 C155.233693,26.1511854 154.104355,25.9400824 152.405192,25.7408913 L149.920906,25.4755236 C148.26493,25.2981707 147.104007,25.1320677 146.436847,24.9785383 C145.77162,24.8236854 145.103171,24.5682442 144.436655,24.2135383 C143.490383,23.7046413 142.748449,22.951553 142.210854,21.9555971 C141.736429,21.0714795 141.50115,20.0417736 141.50115,18.8684648 C141.50115,16.9645677 142.112875,15.3816266 143.339547,14.1196413 C144.952334,12.4824354 147.40439,11.6631707 150.69507,11.6631707 C152.09385,11.6631707 153.588676,11.8736118 155.179547,12.295156 C156.770418,12.7147148 158.610749,13.6332442 160.695383,15.0494207" id="Fill-8" fill="#4D4021"></path>
                <polygon id="Fill-6" fill="#4D4021" points="121.485568 24.7794133 121.485568 30.987428 137.325951 30.987428 137.325951 34.7058839 117.195115 34.7058839 117.195115 12.0609574 136.938547 12.0609574 136.938547 15.7794133 121.485568 15.7794133 121.485568 21.1588986 132.100185 21.1588986 132.100185 24.7794133"></polygon>
                <path d="M95.0179983,21.7245751 L102.696465,21.7245751 C103.814845,21.7245751 104.605124,21.6901633 105.068591,21.6239868 C105.530768,21.5571486 105.976831,21.4247957 106.406779,21.2249427 C107.309862,20.7603839 107.761726,19.9424427 107.761726,18.7678104 C107.761726,17.5733251 107.309862,16.7547221 106.406779,16.310678 C105.998747,16.0903104 105.562354,15.9473692 105.100176,15.880531 C104.637998,15.8143545 103.836117,15.7799427 102.696465,15.7799427 L95.0179983,15.7799427 L95.0179983,21.7245751 Z M95.0179983,25.4754574 L95.0179983,34.7057516 L90.7275453,34.7057516 L90.7275453,12.0608251 L103.212789,12.0608251 C104.86812,12.0608251 106.180524,12.1620751 107.148713,12.361928 C108.116256,12.5604574 108.95488,12.9032516 109.665228,13.3889868 C110.460664,13.9653839 111.06272,14.7515604 111.471395,15.748178 C111.836883,16.6984721 112.019949,17.7175898 112.019949,18.8028839 C112.019949,22.4988398 109.965611,24.6575163 105.858225,25.2756045 L112.148869,34.7057516 L107.471657,34.7057516 L101.276413,25.4754574 L95.0179983,25.4754574 Z" id="Fill-4" fill="#4D4021"></path>
                <path d="M73.5516812,15.4824133 C71.3793815,15.4824133 69.5725697,16.1236633 68.1318902,17.4081486 C66.4114547,18.9355016 65.5509146,20.9280751 65.5509146,23.3845457 C65.5509146,25.841678 66.4114547,27.821678 68.1318902,29.3271927 C69.5725697,30.6110163 71.3896951,31.252928 73.5839111,31.252928 C75.7555662,31.252928 77.562378,30.6110163 79.0037021,29.3271927 C79.8642422,28.5747663 80.5204443,27.6456486 80.9716638,26.5378545 C81.3803397,25.5412368 81.5846777,24.5241045 81.5846777,23.4831486 C81.5846777,20.9155016 80.723493,18.8898398 79.0037021,17.4081486 C77.5411063,16.1461633 75.7246254,15.5035898 73.5516812,15.4824133 M73.5194512,11.6633692 C77.3038937,11.6633692 80.2941899,12.7255016 82.4877613,14.8497663 C84.8108972,17.086531 85.9724652,19.9751339 85.9724652,23.5175604 C85.9724652,25.6861633 85.412953,27.7118251 84.2945732,29.5925604 C82.1229181,33.2673398 78.5415244,35.1037368 73.5516812,35.1037368 C69.8091376,35.1037368 66.8414024,34.0416045 64.6471864,31.916678 C63.4862631,30.766531 62.5928484,29.3927074 61.9695209,27.799178 C61.4319251,26.4048398 61.1631272,24.9330751 61.1631272,23.3845457 C61.1631272,21.1041045 61.723284,19.0235163 62.8410192,17.142781 C64.9275871,13.556678 68.4870645,11.7288839 73.5194512,11.6633692" id="Fill-2" fill="#4D4021"></path>
                <polygon id="Fill-1" fill="#4D4021" points="43.2127125 24.8111118 43.2127125 34.7058177 38.9222596 34.7058177 38.9222596 12.0608913 58.5367718 12.0608913 58.5367718 15.7800089 43.2127125 15.7800089 43.2127125 21.1932442 53.8273293 21.1932442 53.8273293 24.8111118"></polygon>
                <polygon id="Fill-19" fill="#588E32" points="65.454547 9.19564861 61.9898258 2.92344273 61.9898258 9.31807508 60.3712369 9.31807508 60.3712369 0.059325081 62.5918815 0.059325081 65.6285889 5.61219273 68.8251568 0.059325081 70.8981882 0.059325081 70.8981882 9.31807508 69.1197387 9.31807508 69.1197387 2.92344273"></polygon>
                <polygon id="Fill-16" fill="#588E32" points="54.3685993 5.44933243 54.3685993 9.3180089 52.5895052 9.3180089 52.5895052 5.44933243 48.910777 0.0592589045 51.0108815 0.0592589045 53.4990348 3.71153832 56.0413345 0.0592589045 58.0337909 0.0592589045"></polygon>
                <polygon id="Fill-13" fill="#588E32" points="44.2331132 1.58019273 44.2331132 9.31754567 42.4533746 9.31754567 42.4533746 1.58019273 38.9222596 1.58019273 38.9222596 0.0594574339 47.7648728 0.0594574339 47.7648728 1.58019273"></polygon>
                <path d="M21.7942892,12.1542001 L11.228662,13.1170677 L26.3458049,28.2860383 L20.6501254,44.5872883 L29.7860314,35.1108177 L29.7860314,22.0224354 C29.7860314,16.8970677 29.7138362,11.5275089 21.7942892,12.1542001" id="Fill-22" fill="#4D4021"></path>
                <path d="M4.93176481,6.41478096 C6.54068467,8.22470743 10.3522003,10.4416192 10.9890645,10.6500751 C18.4902666,13.1184574 22.0980889,6.02698685 22.0980889,6.02698685 L29.7862247,2.25625155 L4.93176481,6.41478096 Z" id="Fill-25" fill="#588E32"></path>
                <path d="M0,1.46643538 L2.73439024,4.21011185 L29.7862892,2.25592067 L21.0010453,2.61790596 C21.0010453,2.61790596 15.160331,-2.26922639 0,1.46643538" id="Fill-27" fill="#588E32"></path>
            </g>
        </g>
    </g>
</svg>