<?xml version="1.0" encoding="UTF-8" standalone="no"?>
<svg width="20px" height="20px" viewBox="0 0 20 20" version="1.1" xmlns="http://www.w3.org/2000/svg" xmlns:xlink="http://www.w3.org/1999/xlink">
    <!-- Generator: Sketch 3.8.3 (29802) - http://www.bohemiancoding.com/sketch -->
    <title>tel</title>
    <desc>Created with Sketch.</desc>
    <defs></defs>
    <g id="Iconos" stroke="none" stroke-width="1" fill="none" fill-rule="evenodd">
        <g id="tel" fill="#FFFFFF">
            <path d="M6.64612488,8.03124044 C6.64612488,8.03124044 8.25115937,11.6834034 12.3346951,13.6996295 L13.6117854,12.4591175 C13.7845868,12.2913615 13.9927052,12.1620758 14.2235274,12.0920723 C14.4347992,12.0283755 14.6977852,12.0006263 14.979691,12.0933336 C15.156907,12.1519852 15.3152032,12.2560444 15.4476421,12.3878527 L18.0434465,14.9641065 C18.0434465,14.9641065 18.8961013,15.8571238 17.9532618,16.8403257 C17.0097916,17.8235275 15.6759418,18.8565517 12.9268866,18.0839909 C10.1778314,17.3114301 7.33859163,14.8537407 7.33859163,14.8537407 C7.33859163,14.8537407 3.50605935,11.4424906 2.47240452,8.55279782 C1.43938035,5.66373572 2.42258223,3.78751661 2.42258223,3.78751661 C2.42258223,3.78751661 3.32505939,2.05130444 4.53908352,2.00148215 C4.53908352,2.00148215 5.08082208,1.94156928 5.67301359,2.58358307 C6.16556052,3.11775369 7.4565254,4.39484401 7.87654621,4.80918887 C8.06637544,4.99649545 8.21016635,5.22794836 8.27953916,5.48588907 C8.37666109,5.84536635 8.300351,6.47413625 7.79960546,6.93767273 C6.84667536,7.82059937 6.64612488,8.03124044 6.64612488,8.03124044 L6.64612488,8.03124044 Z" id="Icono" transform="translate(10.198516, 10.176984) rotate(-345.000000) translate(-10.198516, -10.176984) "></path>
        </g>
    </g>
</svg>